<?xml version="1.0" encoding="UTF-8" standalone="no"?>
<!-- Generator: Adobe Illustrator 24.1.2, SVG Export Plug-In . SVG Version: 6.00 Build 0)  -->

<svg
   version="1.1"
   id="Ebene_1"
   x="0px"
   y="0px"
   viewBox="0 0 854.7934 283.46457"
   xml:space="preserve"
   sodipodi:docname="logo.svg"
   width="854.7934"
   height="283.46457"
   inkscape:version="1.1.2 (0a00cf5339, 2022-02-04, custom)"
   xmlns:inkscape="http://www.inkscape.org/namespaces/inkscape"
   xmlns:sodipodi="http://sodipodi.sourceforge.net/DTD/sodipodi-0.dtd"
   xmlns="http://www.w3.org/2000/svg"
   xmlns:svg="http://www.w3.org/2000/svg"><defs
   id="defs57" /><sodipodi:namedview
   id="namedview55"
   pagecolor="#ffffff"
   bordercolor="#666666"
   borderopacity="1.0"
   inkscape:pageshadow="2"
   inkscape:pageopacity="0.0"
   inkscape:pagecheckerboard="0"
   showgrid="false"
   fit-margin-top="0"
   fit-margin-left="0"
   fit-margin-right="0"
   fit-margin-bottom="0"
   inkscape:zoom="1.0625317"
   inkscape:cx="425.39909"
   inkscape:cy="141.17227"
   inkscape:window-width="421"
   inkscape:window-height="1398"
   inkscape:window-x="1706"
   inkscape:window-y="18"
   inkscape:window-maximized="1"
   inkscape:current-layer="Ebene_1" />
<style
   type="text/css"
   id="style2">
	.st0{fill:#404040;}
	.st1{fill:url(#SVGID_1_);}
	.st2{fill:url(#SVGID_2_);}
</style>
<g
   id="g20"
   transform="translate(-87.36377,-87.347161)">
	<path
   class="st0"
   d="m 371.13272,262.82086 h 9.20703 l 11.89649,35.36328 15.64453,-36.5039 h 0.48926 l 15.72558,36.5039 11.65235,-35.36328 h 8.63671 l -19.39257,56.1416 h -0.48926 l -16.37793,-38.62304 -16.78516,38.62304 h -0.40722 z"
   id="path4" />
	<path
   class="st0"
   d="m 480.15909,307.88043 h -22.48828 l -4.31934,10.34863 h -8.7998 l 24.28222,-56.54882 h 0.48828 l 24.36329,56.54882 h -9.20704 z m -19.31055,-7.65918 h 16.13281 L 468.996,280.82819 Z"
   id="path6" />
	<path
   class="st0"
   d="m 514.2226,318.22906 h -8.71879 v -55.4082 h 17.76371 c 12.95508,0 20.37011,7.08887 20.37011,17.6001 0,7.74072 -3.8291,13.28174 -10.75586,15.80762 l 13.36329,22.00048 h -9.53321 l -12.38574,-20.45263 h -1.05859 -9.04492 z m 8.71875,-27.94873 c 8.22949,0 11.65234,-3.25927 11.65234,-9.85937 0,-6.68164 -3.50391,-9.85938 -11.65234,-9.85938 h -8.71875 v 19.71875 z"
   id="path8" />
	<path
   class="st0"
   d="m 568.08685,281.80621 v 36.42285 h -8.14843 v -56.22314 h 0.65234 l 35.52637,37.23731 v -36.42237 h 8.14746 v 56.22266 h -0.65137 z"
   id="path10" />
	<path
   class="st0"
   d="m 621.91791,288.65045 h 14.99316 v 7.41504 h -14.99316 z"
   id="path12" />
	<path
   class="st0"
   d="m 681.84857,307.88043 h -22.48828 l -4.31934,10.34863 h -8.7998 l 24.28223,-56.54882 h 0.48828 l 24.36328,56.54882 h -9.20703 z m -19.31055,-7.65918 h 16.13282 l -7.98535,-19.39306 z"
   id="path14" />
	<path
   class="st0"
   d="m 715.91302,318.22906 h -8.71875 v -55.4082 h 17.60059 c 12.95508,0 20.37012,7.17041 20.37012,17.92627 0,11 -7.4961,17.92578 -20.37012,17.92578 h -8.88184 z m 8.55567,-27.29687 c 8.22949,0 11.65234,-3.42236 11.65234,-10.18506 0,-6.84473 -3.5039,-10.18555 -11.65234,-10.18555 h -8.55567 v 20.37061 z"
   id="path16" />
	<path
   class="st0"
   d="m 767.41302,318.22906 h -8.71875 v -55.4082 h 17.60059 c 12.95508,0 20.37012,7.17041 20.37012,17.92627 0,11 -7.4961,17.92578 -20.37012,17.92578 h -8.88184 z m 8.55567,-27.29687 c 8.22949,0 11.65234,-3.42236 11.65234,-10.18506 0,-6.84473 -3.5039,-10.18555 -11.65234,-10.18555 h -8.55567 v 20.37061 z"
   id="path18" />
</g>
<g
   id="g34"
   transform="translate(-87.36377,-87.347161)">
	<path
   class="st0"
   d="m 369.58194,179.85309 c 0,-26.77197 20.37891,-46.48438 46.21875,-46.48438 16.78223,0 28.37012,6.52637 36.22852,17.58155 l -10.92188,7.72509 c -5.99414,-8.125 -13.71875,-12.38671 -25.70703,-12.38671 -17.98047,0 -31.03418,14.38476 -31.03418,33.56445 0,19.57959 13.31934,33.56494 31.56738,33.56494 11.72071,0 20.37891,-4.39551 27.17188,-13.18604 l 11.05468,7.5918 c -9.32324,12.38721 -21.17773,18.51416 -38.75976,18.51416 -25.83887,0 -45.81836,-19.71289 -45.81836,-46.48486 z"
   id="path22" />
	<path
   class="st0"
   d="m 466.81338,179.85309 c 0,-26.77197 20.77833,-46.48438 46.75101,-46.48438 25.97266,0 46.75098,19.71241 46.75098,46.48438 0,26.77197 -20.77832,46.48486 -46.75098,46.48486 -25.97268,0 -46.75101,-19.71289 -46.75101,-46.48486 z m 78.71781,0 c 0,-19.17969 -13.18652,-33.56445 -31.9668,-33.56445 -18.7803,0 -31.96683,14.38476 -31.96683,33.56445 0,19.18017 13.18653,33.56494 31.96683,33.56494 18.78028,0 31.9668,-14.38477 31.9668,-33.56494 z"
   id="path24" />
	<path
   class="st0"
   d="m 595.21381,225.13922 h -14.25196 v -90.57178 h 29.03614 c 21.17773,0 33.29882,11.58789 33.29882,28.77002 0,12.65332 -6.26074,21.71045 -17.58203,25.83936 l 21.84375,35.9624 h -15.58301 l -20.24609,-33.43164 h -1.73144 -14.78418 z m 14.25195,-45.68555 c 13.45215,0 19.0459,-5.32763 19.0459,-16.11621 0,-10.92236 -5.72656,-16.1167 -19.0459,-16.1167 h -14.25195 v 32.23291 z"
   id="path26" />
	<path
   class="st0"
   d="m 661.54291,179.85309 c 0,-26.77197 20.77832,-46.48438 46.75097,-46.48438 25.97266,0 46.75098,19.71241 46.75098,46.48438 0,26.77197 -20.77832,46.48486 -46.75098,46.48486 -25.97265,0 -46.75097,-19.71289 -46.75097,-46.48486 z m 78.71777,0 c 0,-19.17969 -13.18652,-33.56445 -31.9668,-33.56445 -18.78027,0 -31.96679,14.38476 -31.96679,33.56445 0,19.18017 13.18652,33.56494 31.96679,33.56494 18.78028,0 31.9668,-14.38477 31.9668,-33.56494 z"
   id="path28" />
	<path
   class="st0"
   d="m 788.85052,165.60162 v 59.5376 h -13.31933 v -91.90381 h 1.06543 l 58.07226,60.86963 v -59.5376 h 13.31934 v 91.90381 h -1.06543 z"
   id="path30" />
	<path
   class="st0"
   d="M 920.04681,208.22369 H 883.2851 l -7.05958,16.91553 h -14.38476 l 39.69238,-92.43652 h 0.79883 l 39.8252,92.43652 h -15.05079 z m -31.56738,-12.5205 h 26.37305 l -13.05371,-31.7002 z"
   id="path32" />
</g>
<g
   id="g52"
   transform="translate(-87.36377,-87.347161)">
	
		<linearGradient
   id="SVGID_1_"
   gradientUnits="userSpaceOnUse"
   x1="207.81567"
   y1="93.556587"
   x2="207.81567"
   y2="322.28314">
		<stop
   offset="0.5"
   style="stop-color:#59112B"
   id="stop36" />
		<stop
   offset="1"
   style="stop-color:#BC1200"
   id="stop38" />
	</linearGradient>
	<path
   class="st1"
   d="m 232.40192,275.32956 v 24.70361 l 1.22813,1.22815 0.51869,-0.4396 c 3.6292,2 6.09308,5.8507 6.09308,10.28781 0,6.49481 -5.26509,11.75985 -11.75989,11.75985 -6.49479,0 -11.75985,-5.26504 -11.75985,-11.75985 0,-5.11811 3.27551,-9.4603 7.83992,-11.07636 v -22.66278 l 1.22813,-0.81268 -1.22813,-1.22815 c -10.04273,-0.82932 -19.18772,-4.80731 -26.44774,-10.95285 l -17.46654,17.46655 c 2.08484,4.37024 1.33051,9.75681 -2.2885,13.37583 -4.59253,4.59249 -12.03847,4.59249 -16.63099,0 -4.59247,-4.5925 -4.59247,-12.03843 0,-16.63096 3.61906,-3.61904 9.00561,-4.37338 13.37585,-2.28851 l 17.46654,-17.46652 c -5.77321,-6.82018 -9.63251,-15.30423 -10.76662,-24.63294 l 1.04189,-0.58667 -1.22815,-1.22814 h -24.70357 c -1.61606,4.56442 -5.95824,7.83987 -11.07636,7.83987 -6.49479,0 -11.75985,-5.26506 -11.75985,-11.75984 0,-6.4948 5.26506,-11.75986 11.75985,-11.75986 5.11812,0 9.4603,3.2755 11.07636,7.83992 l 1.22813,1.22813 1.19905,-1.22813 h 22.27639 c 0.82933,-10.04272 4.80737,-19.18776 10.95288,-26.44774 l -17.46654,-17.46654 c -4.37024,2.08484 -9.75679,1.33051 -13.37585,-2.28854 -4.59247,-4.59253 -4.59247,-12.03844 0,-16.63095 4.59253,-4.59251 12.03846,-4.59251 16.63099,0 3.61901,3.61905 4.37334,9.00557 2.2885,13.37581 l 17.46654,17.46654 c 7.26002,-6.14553 16.40501,-10.12352 26.44774,-10.95284 v -22.97424 l 1.22813,-0.50119 -1.22813,-1.22815 c -4.56441,-1.61604 -7.83992,-5.95822 -7.83992,-11.07634 0,-6.4948 5.26506,-11.7599 11.75985,-11.7599 6.4948,0 11.75989,5.2651 11.75989,11.7599 0,5.11812 -3.2755,9.4603 -7.8399,11.07634 v 24.70358 l 1.22813,1.22815 0.95757,-0.99499 c 10.5446,1.36785 19.99119,6.22712 27.14727,13.37812 l 66.53272,-66.53271 c -25.53739,-25.53737 -60.81693,-41.332589 -99.78568,-41.332589 -77.9374,0 -141.11816,63.180809 -141.11816,141.118229 0,77.93741 63.18076,141.11821 141.11816,141.11821 38.96875,0 74.24829,-15.7952 99.78568,-41.33255 l -66.53272,-66.53272 c -7.64717,7.64175 -17.90963,12.6679 -29.33297,13.61123 z"
   id="path41"
   style="fill:url(#SVGID_1_)" />
	
		<linearGradient
   id="SVGID_2_"
   gradientUnits="userSpaceOnUse"
   x1="209.04382"
   y1="370.81174"
   x2="209.04382"
   y2="88.575302">
		<stop
   offset="0"
   style="stop-color:#BC1200"
   id="stop43" />
		<stop
   offset="0.67"
   style="stop-color:#80CDEC"
   id="stop45" />
		<stop
   offset="1"
   style="stop-color:#BDE0F9"
   id="stop47" />
	</linearGradient>
	<path
   class="st2"
   d="m 233.63005,276.55771 v 24.70361 c 4.56441,1.61606 7.83992,5.95822 7.83992,11.07636 0,6.49478 -5.26511,11.75985 -11.7599,11.75985 -6.49478,0 -11.75984,-5.26507 -11.75984,-11.75985 0,-5.11814 3.27549,-9.4603 7.8399,-11.07636 v -24.70361 c -10.04271,-0.82932 -19.1877,-4.80731 -26.44774,-10.95285 l -17.46654,17.46655 c 2.08484,4.37024 1.33053,9.75681 -2.28849,13.37579 -4.59252,4.59253 -12.03847,4.59253 -16.63098,0 -4.59249,-4.59246 -4.59249,-12.03842 0,-16.63092 3.61904,-3.61908 9.0056,-4.37338 13.37585,-2.28851 l 17.46654,-17.46655 c -6.14553,-7.25998 -10.12357,-16.405 -10.95288,-26.44773 H 158.1423 c -1.61604,4.56441 -5.95822,7.83988 -11.07635,7.83988 -6.49478,0 -11.75984,-5.26506 -11.75984,-11.75986 0,-6.49479 5.26506,-11.75984 11.75984,-11.75984 5.11813,0 9.46031,3.2755 11.07635,7.8399 h 24.70359 c 0.82931,-10.04272 4.80735,-19.18774 10.95288,-26.44773 L 176.33223,181.8593 c -4.37025,2.08484 -9.75681,1.33052 -13.37585,-2.28854 -4.59249,-4.59252 -4.59249,-12.03843 0,-16.63096 4.59251,-4.59251 12.03846,-4.59251 16.63098,0 3.61902,3.61907 4.37333,9.00557 2.28849,13.37583 l 17.46654,17.46654 c 7.26004,-6.14553 16.40503,-10.12352 26.44774,-10.95284 v -24.70358 c -4.56441,-1.61605 -7.8399,-5.95824 -7.8399,-11.07636 0,-6.49478 5.26506,-11.75988 11.75984,-11.75988 6.49479,0 11.7599,5.2651 11.7599,11.75988 0,5.11812 -3.27551,9.46031 -7.83992,11.07636 v 24.70358 c 11.42334,0.94333 21.68581,5.96953 29.33296,13.61128 l 66.53272,-66.53273 c -25.53736,-25.53736 -60.8169,-41.332578 -99.78566,-41.332578 -77.93741,0 -141.118166,63.180798 -141.118166,141.118208 0,77.93741 63.180756,141.11823 141.118166,141.11823 38.96876,0 74.2483,-15.7952 99.78566,-41.33255 l -66.53272,-66.53272 c -7.64715,7.64176 -17.90962,12.66791 -29.33296,13.61124 z"
   id="path50"
   style="fill:url(#SVGID_2_)" />
</g>
</svg>
